<?xml version="1.0" encoding="utf-8"?>
<!-- Generator: Adobe Illustrator 19.2.0, SVG Export Plug-In . SVG Version: 6.00 Build 0)  -->
<svg version="1.1" xmlns="http://www.w3.org/2000/svg" xmlns:xlink="http://www.w3.org/1999/xlink" x="0px" y="0px"
	 viewBox="0 0 46.6 63.3" style="enable-background:new 0 0 46.6 63.3;" xml:space="preserve">
<g id="Layer_2">
	<rect x="-10626.3" y="-1133" style="fill:#2F2F38;" width="7352" height="4000"/>
</g>
<g id="Layer_1">
	<path style="fill:#2B7670;" d="M39.1,41c3.2-1.8,7.5-5.8,7.5-11.7c0-5.7-4.2-10.2-10.3-10.2H23.4c-0.6,0-1.1,0.6-1.3,1.2l-2.5,18
		H7.3l5.2-37.1C12.6,0.6,12.1,0,11.6,0H7.1C6.5,0,5.9,0.6,5.9,1.2L0,43c-0.1,0.6,0.3,1.2,0.9,1.2h17.8l-2.5,17.9
		c-0.1,0.6,0.3,1.2,0.9,1.2h13.5c8.3,0,14.2-5.8,14.2-13.5C44.9,44.9,41.6,42.2,39.1,41z M28,25h7c2.9,0,4.7,2.2,4.7,5.4
		c0,4-3.7,7.9-7.9,7.9h-5.7L28,25z M31,57.5h-7.6l2-13.5h7.1c3.1,0,5.6,2.6,5.6,5.9C38,54.2,34.8,57.5,31,57.5z"/>
</g>
</svg>
